<?xml version="1.0" encoding="us-ascii" standalone="no"?><svg xmlns="http://www.w3.org/2000/svg" xmlns:xlink="http://www.w3.org/1999/xlink" contentStyleType="text/css" height="541px" preserveAspectRatio="none" style="width:985px;height:541px;background:#DDDDDD;" version="1.1" viewBox="0 0 985 541" width="985px" zoomAndPan="magnify"><defs/><g><rect fill="#DDDDDD" height="541" style="stroke:none;stroke-width:1.0;" width="985" x="0" y="0"/><rect fill="#FFFFFF" height="360.4609" style="stroke:#454645;stroke-width:1.0;" width="10" x="111.5" y="91.2969"/><rect fill="#FFFFFF" height="360.4609" style="stroke:#454645;stroke-width:1.0;" width="10" x="481.5" y="91.2969"/><rect fill="#FFFFFF" height="360.4609" style="stroke:#454645;stroke-width:1.0;" width="10" x="799.5" y="91.2969"/><line style="stroke:#454645;stroke-width:0.5;stroke-dasharray:5.0,5.0;" x1="23" x2="23" y1="81.2969" y2="460.7578"/><line style="stroke:#454645;stroke-width:0.5;stroke-dasharray:5.0,5.0;" x1="116" x2="116" y1="81.2969" y2="460.7578"/><line style="stroke:#454645;stroke-width:0.5;stroke-dasharray:5.0,5.0;" x1="486.5" x2="486.5" y1="81.2969" y2="460.7578"/><line style="stroke:#454645;stroke-width:0.5;stroke-dasharray:5.0,5.0;" x1="804" x2="804" y1="81.2969" y2="460.7578"/><text fill="#454645" font-family="sans-serif" font-size="14" lengthAdjust="spacing" textLength="31" x="5" y="77.9951">User</text><ellipse cx="23.5" cy="13.5" fill="#454645" rx="8" ry="8" style="stroke:#454645;stroke-width:0.5;"/><path d="M23.5,21.5 L23.5,48.5 M10.5,29.5 L36.5,29.5 M23.5,48.5 L10.5,63.5 M23.5,48.5 L36.5,63.5 " fill="none" style="stroke:#454645;stroke-width:0.5;"/><text fill="#454645" font-family="sans-serif" font-size="14" lengthAdjust="spacing" textLength="31" x="5" y="472.7529">User</text><ellipse cx="23.5" cy="484.5547" fill="#454645" rx="8" ry="8" style="stroke:#454645;stroke-width:0.5;"/><path d="M23.5,492.5547 L23.5,519.5547 M10.5,500.5547 L36.5,500.5547 M23.5,519.5547 L10.5,534.5547 M23.5,519.5547 L36.5,534.5547 " fill="none" style="stroke:#454645;stroke-width:0.5;"/><rect fill="#FF6F61" height="30.2969" rx="3.5" ry="3.5" style="stroke:#454645;stroke-width:1.5;" width="129" x="52" y="50"/><text fill="#FFFFFF" font-family="sans-serif" font-size="14" lengthAdjust="spacing" textLength="115" x="59" y="69.9951">Smart_Contract</text><rect fill="#FF6F61" height="30.2969" rx="3.5" ry="3.5" style="stroke:#454645;stroke-width:1.5;" width="129" x="52" y="459.7578"/><text fill="#FFFFFF" font-family="sans-serif" font-size="14" lengthAdjust="spacing" textLength="115" x="59" y="479.7529">Smart_Contract</text><rect fill="#FF6F61" height="30.2969" rx="3.5" ry="3.5" style="stroke:#454645;stroke-width:1.5;" width="92" x="440.5" y="50"/><text fill="#FFFFFF" font-family="sans-serif" font-size="14" lengthAdjust="spacing" textLength="78" x="447.5" y="69.9951">Blockchain</text><rect fill="#FF6F61" height="30.2969" rx="3.5" ry="3.5" style="stroke:#454645;stroke-width:1.5;" width="92" x="440.5" y="459.7578"/><text fill="#FFFFFF" font-family="sans-serif" font-size="14" lengthAdjust="spacing" textLength="78" x="447.5" y="479.7529">Blockchain</text><rect fill="#FF6F61" height="30.2969" rx="3.5" ry="3.5" style="stroke:#454645;stroke-width:1.5;" width="105" x="752" y="50"/><text fill="#FFFFFF" font-family="sans-serif" font-size="14" lengthAdjust="spacing" textLength="91" x="759" y="69.9951">RNG_Service</text><rect fill="#FF6F61" height="30.2969" rx="3.5" ry="3.5" style="stroke:#454645;stroke-width:1.5;" width="105" x="752" y="459.7578"/><text fill="#FFFFFF" font-family="sans-serif" font-size="14" lengthAdjust="spacing" textLength="91" x="759" y="479.7529">RNG_Service</text><rect fill="#FFFFFF" height="360.4609" style="stroke:#454645;stroke-width:1.0;" width="10" x="111.5" y="91.2969"/><rect fill="#FFFFFF" height="360.4609" style="stroke:#454645;stroke-width:1.0;" width="10" x="481.5" y="91.2969"/><rect fill="#FFFFFF" height="360.4609" style="stroke:#454645;stroke-width:1.0;" width="10" x="799.5" y="91.2969"/><polygon fill="#454645" points="99.5,108.4297,109.5,112.4297,99.5,116.4297,103.5,112.4297" style="stroke:#454645;stroke-width:1.0;"/><line style="stroke:#454645;stroke-width:1.0;" x1="23.5" x2="105.5" y1="112.4297" y2="112.4297"/><text fill="#000000" font-family="sans-serif" font-size="13" lengthAdjust="spacing" textLength="42" x="30.5" y="107.3638">Invoke</text><polygon fill="#454645" points="469.5,137.5625,479.5,141.5625,469.5,145.5625,473.5,141.5625" style="stroke:#454645;stroke-width:1.0;"/><line style="stroke:#454645;stroke-width:1.0;" x1="121.5" x2="475.5" y1="141.5625" y2="141.5625"/><text fill="#000000" font-family="sans-serif" font-size="13" lengthAdjust="spacing" textLength="301" x="128.5" y="136.4966">emit: RandmonnessRequested (uint256: UUID)</text><polygon fill="#454645" points="502.5,166.6953,492.5,170.6953,502.5,174.6953,498.5,170.6953" style="stroke:#454645;stroke-width:1.0;"/><line style="stroke:#454645;stroke-width:1.0;" x1="496.5" x2="798.5" y1="170.6953" y2="170.6953"/><text fill="#000000" font-family="sans-serif" font-size="13" lengthAdjust="spacing" textLength="107" x="508.5" y="165.6294">query for events</text><polygon fill="#454645" points="787.5,195.8281,797.5,199.8281,787.5,203.8281,791.5,199.8281" style="stroke:#454645;stroke-width:1.0;"/><line style="stroke:#454645;stroke-width:1.0;stroke-dasharray:2.0,2.0;" x1="491.5" x2="793.5" y1="199.8281" y2="199.8281"/><text fill="#000000" font-family="sans-serif" font-size="13" lengthAdjust="spacing" textLength="249" x="498.5" y="194.7622">return RandmonnessRequested (UUID)</text><line style="stroke:#454645;stroke-width:1.0;" x1="809.5" x2="851.5" y1="228.9609" y2="228.9609"/><line style="stroke:#454645;stroke-width:1.0;" x1="851.5" x2="851.5" y1="228.9609" y2="241.9609"/><line style="stroke:#454645;stroke-width:1.0;" x1="810.5" x2="851.5" y1="241.9609" y2="241.9609"/><polygon fill="#454645" points="820.5,237.9609,810.5,241.9609,820.5,245.9609,816.5,241.9609" style="stroke:#454645;stroke-width:1.0;"/><text fill="#000000" font-family="sans-serif" font-size="13" lengthAdjust="spacing" textLength="113" x="816.5" y="223.895">fetch next fair RN</text><polygon fill="#454645" points="132.5,267.0938,122.5,271.0938,132.5,275.0938,128.5,271.0938" style="stroke:#454645;stroke-width:1.0;"/><line style="stroke:#454645;stroke-width:1.0;" x1="126.5" x2="798.5" y1="271.0938" y2="271.0938"/><text fill="#000000" font-family="sans-serif" font-size="13" lengthAdjust="spacing" textLength="215" x="138.5" y="266.0278">invoke FullfilRandomnessRequest</text><line style="stroke:#454645;stroke-width:1.0;" x1="121.5" x2="163.5" y1="300.2266" y2="300.2266"/><line style="stroke:#454645;stroke-width:1.0;" x1="163.5" x2="163.5" y1="300.2266" y2="313.2266"/><line style="stroke:#454645;stroke-width:1.0;" x1="122.5" x2="163.5" y1="313.2266" y2="313.2266"/><polygon fill="#454645" points="132.5,309.2266,122.5,313.2266,132.5,317.2266,128.5,313.2266" style="stroke:#454645;stroke-width:1.0;"/><text fill="#000000" font-family="sans-serif" font-size="13" lengthAdjust="spacing" textLength="72" x="128.5" y="295.1606">process RN</text><polygon fill="#454645" points="469.5,338.3594,479.5,342.3594,469.5,346.3594,473.5,342.3594" style="stroke:#454645;stroke-width:1.0;"/><line style="stroke:#454645;stroke-width:1.0;" x1="121.5" x2="475.5" y1="342.3594" y2="342.3594"/><text fill="#000000" font-family="sans-serif" font-size="13" lengthAdjust="spacing" textLength="336" x="128.5" y="337.2935">emit: RandmonnessRequestFullfilled (uint256: UUID)</text><polygon fill="#454645" points="502.5,367.4922,492.5,371.4922,502.5,375.4922,498.5,371.4922" style="stroke:#454645;stroke-width:1.0;"/><line style="stroke:#454645;stroke-width:1.0;" x1="496.5" x2="798.5" y1="371.4922" y2="371.4922"/><text fill="#000000" font-family="sans-serif" font-size="13" lengthAdjust="spacing" textLength="107" x="508.5" y="366.4263">query for events</text><polygon fill="#454645" points="787.5,396.625,797.5,400.625,787.5,404.625,791.5,400.625" style="stroke:#454645;stroke-width:1.0;"/><line style="stroke:#454645;stroke-width:1.0;stroke-dasharray:2.0,2.0;" x1="491.5" x2="793.5" y1="400.625" y2="400.625"/><text fill="#000000" font-family="sans-serif" font-size="13" lengthAdjust="spacing" textLength="284" x="498.5" y="395.5591">return RandmonnessRequestFullfilled (UUID)</text><line style="stroke:#454645;stroke-width:1.0;" x1="809.5" x2="851.5" y1="429.7578" y2="429.7578"/><line style="stroke:#454645;stroke-width:1.0;" x1="851.5" x2="851.5" y1="429.7578" y2="442.7578"/><line style="stroke:#454645;stroke-width:1.0;" x1="810.5" x2="851.5" y1="442.7578" y2="442.7578"/><polygon fill="#454645" points="820.5,438.7578,810.5,442.7578,820.5,446.7578,816.5,442.7578" style="stroke:#454645;stroke-width:1.0;"/><text fill="#000000" font-family="sans-serif" font-size="13" lengthAdjust="spacing" textLength="162" x="816.5" y="424.6919">mark request as finalized</text><!--SRC=[nP0nJyCm48Lt_ufZWw4B4WmP6021kZ2aobnPpaKvnJu7-n9HVZrEXLh7Aa9YOVIxz-uxlolfqI68FoXjn0Te8WOrwY1aQDGii7FfiN_oB24vLgD7wyrWUasyakktr_qEmqm6rRALPYsOcqzQxZo91N0v23OFXLp1bcS_e5hBY_4CgW0T9MkjkNMU6MEiyNt2ADZ2zKGijtVt5JJDzlb6PRUKMr8a7A1BxU2CB56TXx19tYnQGK2P0l_0l8XQnJiKqmFZXq2dAQHXQI-Be6CHy39Psv5TkDvbs0iDbHl6u4qABAo_rVdDjlzHQyx-lTxqlI7jEYP1H-Y8jQLFRBy0]--></g></svg>